<svg width="70" height="65" viewBox="0 0 70 65" fill="none" xmlns="http://www.w3.org/2000/svg">
<path d="M68.3919 6.01169L64.764 4.74204L63.5521 0.92503C63.1609 -0.308343 61.2166 -0.308343 60.8254 0.92503L59.6135 4.74204L55.9856 6.01169C55.3988 6.21726 55 6.79364 55 7.4466C55 8.09956 55.3988 8.67594 55.9856 8.8815L59.6135 10.1512L60.8254 13.9682C61.021 14.5848 61.5694 15 62.1868 15C62.8043 15 63.3565 14.5808 63.5483 13.9682L64.7601 10.1512L68.3881 8.8815C68.9748 8.67594 69.3737 8.09956 69.3737 7.4466C69.3737 6.79364 68.9748 6.21726 68.3881 6.01169H68.3919Z" fill="#069689"/>
<path d="M52.0993 16.5249C50.8224 15.2474 49.3064 14.234 47.6377 13.5426C45.9691 12.8512 44.1805 12.4954 42.3743 12.4954C40.5681 12.4954 38.7796 12.8512 37.1109 13.5426C35.4423 14.234 33.9262 15.2474 32.6493 16.5249L29.9993 19.1749L27.3493 16.5249C24.7701 13.9457 21.2719 12.4967 17.6243 12.4967C13.9767 12.4967 10.4786 13.9457 7.89932 16.5249C5.32009 19.1042 3.87109 22.6023 3.87109 26.2499C3.87109 29.8975 5.32009 33.3957 7.89932 35.9749L29.9993 58.0749L52.0993 35.9749C53.3768 34.698 54.3902 33.182 55.0816 31.5133C55.773 29.8447 56.1289 28.0561 56.1289 26.2499C56.1289 24.4437 55.773 22.6552 55.0816 20.9865C54.3902 19.3179 53.3768 17.8018 52.0993 16.5249Z" fill="#1B1B1B"/>
<path d="M3.75 60C5.82105 60 7.5 58.3211 7.5 56.25C7.5 54.179 5.82105 52.5 3.75 52.5C1.67895 52.5 0 54.179 0 56.25C0 58.3211 1.67895 60 3.75 60Z" fill="#FCB117"/>
</svg>
